# xmcd CD database file
#
# Track frame offsets:
#	150
#	23314
#	56517
#	77757
#	93939
#	120698
#	142489
#	168466
#	192417
#	216680
#	239806
#
# Disc length: 3368 seconds
#
# Revision: 0
# Processed by: cddbd v1.5.2PL0 Copyright (c) Steve Scherf et al.
# Submitted via: CDex 1.51
#
DISCID=a30d260b
DTITLE=Alan Barnes - If You Could See Me Now
DYEAR=2002
DGENRE=Jazz
TTITLE0=Five Brothers
TTITLE1=In The Middle Of A Kiss
TTITLE2=If You Could See Me Now
TTITLE3=Samba Dees Days
TTITLE4=Prelude To A Kiss
TTITLE5=Bouncin' With Bud
TTITLE6=Mangos
TTITLE7=Mad About The Boy
TTITLE8=Someone To Watch Over Me
TTITLE9=Red Door
TTITLE10=Suzie The Poodle
EXTD=YEAR: 2002
EXTT0=
EXTT1=
EXTT2=
EXTT3=
EXTT4=
EXTT5=
EXTT6=
EXTT7=
EXTT8=
EXTT9=
EXTT10=
PLAYORDER=
